<svg width="16" height="15" viewBox="0 0 16 15" fill="none" xmlns="http://www.w3.org/2000/svg">
<path fill-rule="evenodd" clip-rule="evenodd" d="M6.49313 12.994C5.20755 12.994 3.95084 12.6128 2.88192 11.8986C1.813 11.1844 0.979909 10.1692 0.487939 8.98147C-0.0040302 7.79375 -0.132738 6.48682 0.118066 5.22595C0.36887 3.96507 0.987895 2.80686 1.89694 1.89782C2.80598 0.98878 3.96418 0.369725 5.22506 0.118921C6.48594 -0.131883 7.7929 -0.00317571 8.98062 0.488794C10.1683 0.980764 11.1834 1.81389 11.8977 2.88281C12.6119 3.95173 12.9931 5.20843 12.9931 6.49401C12.9931 8.21792 12.3083 9.87122 11.0893 11.0902C9.87033 12.3092 8.21703 12.994 6.49313 12.994ZM6.49313 1.98702C5.60167 1.98584 4.72992 2.24909 3.98812 2.74349C3.24633 3.2379 2.66786 3.94123 2.32589 4.76449C1.98392 5.58775 1.89379 6.49396 2.06698 7.36843C2.24017 8.24291 2.66886 9.04634 3.29879 9.67712C3.92873 10.3079 4.73162 10.7377 5.60586 10.912C6.4801 11.0864 7.38639 10.9975 8.21011 10.6566C9.03382 10.3157 9.73791 9.73817 10.2333 8.99703C10.7287 8.2559 10.9931 7.38449 10.9931 6.49304C10.9939 5.90158 10.8781 5.31576 10.6523 4.7691C10.4265 4.22244 10.0952 3.72565 9.67727 3.30715C9.25933 2.88865 8.76299 2.55665 8.21664 2.33013C7.67028 2.10361 7.08458 1.98702 6.49313 1.98702ZM16.0091 14.111L15.1162 15.011L12.0081 12.378L13.3891 10.99L16.0091 14.111Z" fill="#6E747A"/>
</svg>
